<svg width="255" height="219" viewBox="0 0 255 219" fill="none" xmlns="http://www.w3.org/2000/svg">
<g clip-path="url(#clip0_1693_8)">
<g filter="url(#filter0_d_1693_8)">
<path d="M218.274 189.956H168.995C148.828 189.956 123.467 187.73 106.253 170.359C89.0788 153.029 86.6911 127.32 86.5217 106.864L86.3684 88.7725C86.3684 88.4452 86.4894 88.1342 86.7233 87.8969C86.9573 87.6597 87.2638 87.5369 87.5784 87.5369H178.602C180.151 87.5369 181.417 86.2605 181.425 84.6894L181.546 64.6098C181.554 63.8407 181.264 63.1206 180.732 62.5724C180.207 62.0324 179.481 61.7296 178.731 61.7214C178.731 61.7214 64.4272 61.4351 64.3385 61.4351C63.5883 61.4351 62.8784 61.7296 62.346 62.2697C61.8217 62.8015 61.5152 63.5379 61.5152 64.2989V188.729C61.5152 189.408 60.9747 189.956 60.3052 189.956H24.9492C24.2797 189.956 23.7393 189.408 23.7393 188.729V24.2215C23.7393 23.8942 23.8683 23.5833 24.0942 23.3542C24.3201 23.1251 24.6266 22.9941 24.9492 22.9941L218.386 23.4851C218.709 23.4851 219.016 23.616 219.242 23.8451C219.467 24.0742 219.596 24.3933 219.588 24.7206L218.975 124.644C218.975 125.315 218.435 125.863 217.765 125.863H129.178C128.315 125.863 127.508 126.256 126.968 126.943C126.427 127.631 126.225 128.514 126.419 129.365C127.831 135.682 129.96 140.199 132.913 143.185C138.616 148.946 150.087 151.621 168.995 151.621H218.274C218.943 151.621 219.484 152.17 219.484 152.849V188.729C219.484 189.4 218.943 189.956 218.274 189.956ZM88.8126 89.9835L88.9497 106.839C89.111 126.829 91.4262 151.916 107.971 168.616C124.556 185.358 149.296 187.501 169.003 187.501H217.072V154.076H169.003C149.409 154.076 137.398 151.171 131.211 144.92C127.919 141.598 125.58 136.689 124.064 129.905C123.709 128.318 124.08 126.682 125.08 125.405C126.08 124.137 127.573 123.4 129.178 123.4H216.572L217.168 25.9316L26.1592 25.4489V187.493H59.1113V64.2907C59.1113 62.8915 59.676 61.5169 60.6521 60.5268C61.6442 59.5286 62.9591 58.9722 64.3546 58.9722C64.3546 58.9722 64.3627 58.9722 178.747 59.2585C180.135 59.2585 181.482 59.8395 182.458 60.8377C183.442 61.8442 183.982 63.1861 183.974 64.618L183.853 84.6976C183.837 87.6106 181.482 89.9835 178.61 89.9835H88.8126V89.9835Z" fill="#FF0000"/>
</g>
<g filter="url(#filter1_d_1693_8)">
<path d="M218.274 189.956H168.995C148.828 189.956 123.467 187.73 106.253 170.359C89.0788 153.029 86.6911 127.32 86.5217 106.864L86.3684 88.7725C86.3684 88.4452 86.4894 88.1342 86.7233 87.8969C86.9573 87.6597 87.2638 87.5369 87.5784 87.5369H178.602C180.151 87.5369 181.417 86.2605 181.425 84.6894L181.546 64.6098C181.554 63.8407 181.264 63.1206 180.732 62.5724C180.207 62.0324 179.481 61.7296 178.731 61.7214C178.731 61.7214 64.4272 61.4351 64.3385 61.4351C63.5883 61.4351 62.8784 61.7296 62.346 62.2697C61.8217 62.8015 61.5152 63.5379 61.5152 64.2989V188.729C61.5152 189.408 60.9747 189.956 60.3052 189.956H24.9492C24.2797 189.956 23.7393 189.408 23.7393 188.729V24.2215C23.7393 23.8942 23.8683 23.5833 24.0942 23.3542C24.3201 23.1251 24.6266 22.9941 24.9492 22.9941L218.386 23.4851C218.709 23.4851 219.016 23.616 219.242 23.8451C219.467 24.0742 219.596 24.3933 219.588 24.7206L218.975 124.644C218.975 125.315 218.435 125.863 217.765 125.863H129.178C128.315 125.863 127.508 126.256 126.968 126.943C126.427 127.631 126.225 128.514 126.419 129.365C127.831 135.682 129.96 140.199 132.913 143.185C138.616 148.946 150.087 151.621 168.995 151.621H218.274C218.943 151.621 219.484 152.17 219.484 152.849V188.729C219.484 189.4 218.943 189.956 218.274 189.956ZM88.8126 89.9835L88.9497 106.839C89.111 126.829 91.4262 151.916 107.971 168.616C124.556 185.358 149.296 187.501 169.003 187.501H217.072V154.076H169.003C149.409 154.076 137.398 151.171 131.211 144.92C127.919 141.598 125.58 136.689 124.064 129.905C123.709 128.318 124.08 126.682 125.08 125.405C126.08 124.137 127.573 123.4 129.178 123.4H216.572L217.168 25.9316L26.1592 25.4489V187.493H59.1113V64.2907C59.1113 62.8915 59.676 61.5169 60.6521 60.5268C61.6442 59.5286 62.9591 58.9722 64.3546 58.9722C64.3546 58.9722 64.3627 58.9722 178.747 59.2585C180.135 59.2585 181.482 59.8395 182.458 60.8377C183.442 61.8442 183.982 63.1861 183.974 64.618L183.853 84.6976C183.837 87.6106 181.482 89.9835 178.61 89.9835H88.8126V89.9835Z" fill="#FFB6B6"/>
</g>
<g filter="url(#filter2_d_1693_8)">
<path d="M218.274 189.956H168.995C148.828 189.956 123.467 187.73 106.253 170.359C89.0788 153.029 86.6911 127.32 86.5217 106.864L86.3684 88.7725C86.3684 88.4452 86.4894 88.1342 86.7233 87.8969C86.9573 87.6597 87.2638 87.5369 87.5784 87.5369H178.602C180.151 87.5369 181.417 86.2605 181.425 84.6894L181.546 64.6098C181.554 63.8407 181.264 63.1206 180.732 62.5724C180.207 62.0324 179.481 61.7296 178.731 61.7214C178.731 61.7214 64.4272 61.4351 64.3385 61.4351C63.5883 61.4351 62.8784 61.7296 62.346 62.2697C61.8217 62.8015 61.5152 63.5379 61.5152 64.2989V188.729C61.5152 189.408 60.9747 189.956 60.3052 189.956H24.9492C24.2797 189.956 23.7393 189.408 23.7393 188.729V24.2215C23.7393 23.8942 23.8683 23.5833 24.0942 23.3542C24.3201 23.1251 24.6266 22.9941 24.9492 22.9941L218.386 23.4851C218.709 23.4851 219.016 23.616 219.242 23.8451C219.467 24.0742 219.596 24.3933 219.588 24.7206L218.975 124.644C218.975 125.315 218.435 125.863 217.765 125.863H129.178C128.315 125.863 127.508 126.256 126.968 126.943C126.427 127.631 126.225 128.514 126.419 129.365C127.831 135.682 129.96 140.199 132.913 143.185C138.616 148.946 150.087 151.621 168.995 151.621H218.274C218.943 151.621 219.484 152.17 219.484 152.849V188.729C219.484 189.4 218.943 189.956 218.274 189.956ZM88.8126 89.9835L88.9497 106.839C89.111 126.829 91.4262 151.916 107.971 168.616C124.556 185.358 149.296 187.501 169.003 187.501H217.072V154.076H169.003C149.409 154.076 137.398 151.171 131.211 144.92C127.919 141.598 125.58 136.689 124.064 129.905C123.709 128.318 124.08 126.682 125.08 125.405C126.08 124.137 127.573 123.4 129.178 123.4H216.572L217.168 25.9316L26.1592 25.4489V187.493H59.1113V64.2907C59.1113 62.8915 59.676 61.5169 60.6521 60.5268C61.6442 59.5286 62.9591 58.9722 64.3546 58.9722C64.3546 58.9722 64.3627 58.9722 178.747 59.2585C180.135 59.2585 181.482 59.8395 182.458 60.8377C183.442 61.8442 183.982 63.1861 183.974 64.618L183.853 84.6976C183.837 87.6106 181.482 89.9835 178.61 89.9835H88.8126V89.9835Z" fill="#FF0000"/>
</g>
<g filter="url(#filter3_d_1693_8)">
<path d="M218.274 189.956H168.995C148.828 189.956 123.467 187.73 106.253 170.359C89.0788 153.029 86.6911 127.32 86.5217 106.864L86.3684 88.7725C86.3684 88.4452 86.4894 88.1342 86.7233 87.8969C86.9573 87.6597 87.2638 87.5369 87.5784 87.5369H178.602C180.151 87.5369 181.417 86.2605 181.425 84.6894L181.546 64.6098C181.554 63.8407 181.264 63.1206 180.732 62.5724C180.207 62.0324 179.481 61.7296 178.731 61.7214C178.731 61.7214 64.4272 61.4351 64.3385 61.4351C63.5883 61.4351 62.8784 61.7296 62.346 62.2697C61.8217 62.8015 61.5152 63.5379 61.5152 64.2989V188.729C61.5152 189.408 60.9747 189.956 60.3052 189.956H24.9492C24.2797 189.956 23.7393 189.408 23.7393 188.729V24.2215C23.7393 23.8942 23.8683 23.5833 24.0942 23.3542C24.3201 23.1251 24.6266 22.9941 24.9492 22.9941L218.386 23.4851C218.709 23.4851 219.016 23.616 219.242 23.8451C219.467 24.0742 219.596 24.3933 219.588 24.7206L218.975 124.644C218.975 125.315 218.435 125.863 217.765 125.863H129.178C128.315 125.863 127.508 126.256 126.968 126.943C126.427 127.631 126.225 128.514 126.419 129.365C127.831 135.682 129.96 140.199 132.913 143.185C138.616 148.946 150.087 151.621 168.995 151.621H218.274C218.943 151.621 219.484 152.17 219.484 152.849V188.729C219.484 189.4 218.943 189.956 218.274 189.956ZM88.8126 89.9835L88.9497 106.839C89.111 126.829 91.4262 151.916 107.971 168.616C124.556 185.358 149.296 187.501 169.003 187.501H217.072V154.076H169.003C149.409 154.076 137.398 151.171 131.211 144.92C127.919 141.598 125.58 136.689 124.064 129.905C123.709 128.318 124.08 126.682 125.08 125.405C126.08 124.137 127.573 123.4 129.178 123.4H216.572L217.168 25.9316L26.1592 25.4489V187.493H59.1113V64.2907C59.1113 62.8915 59.676 61.5169 60.6521 60.5268C61.6442 59.5286 62.9591 58.9722 64.3546 58.9722C64.3546 58.9722 64.3627 58.9722 178.747 59.2585C180.135 59.2585 181.482 59.8395 182.458 60.8377C183.442 61.8442 183.982 63.1861 183.974 64.618L183.853 84.6976C183.837 87.6106 181.482 89.9835 178.61 89.9835H88.8126V89.9835Z" fill="#FF0000"/>
</g>
</g>
<defs>
<filter id="filter0_d_1693_8" x="8.73926" y="11.9941" width="225.85" height="196.961" filterUnits="userSpaceOnUse" color-interpolation-filters="sRGB">
<feFlood flood-opacity="0" result="BackgroundImageFix"/>
<feColorMatrix in="SourceAlpha" type="matrix" values="0 0 0 0 0 0 0 0 0 0 0 0 0 0 0 0 0 0 127 0" result="hardAlpha"/>
<feOffset dy="4"/>
<feGaussianBlur stdDeviation="7.5"/>
<feComposite in2="hardAlpha" operator="out"/>
<feColorMatrix type="matrix" values="0 0 0 0 1 0 0 0 0 0 0 0 0 0 0 0 0 0 1 0"/>
<feBlend mode="normal" in2="BackgroundImageFix" result="effect1_dropShadow_1693_8"/>
<feBlend mode="normal" in="SourceGraphic" in2="effect1_dropShadow_1693_8" result="shape"/>
</filter>
<filter id="filter1_d_1693_8" x="-11.2607" y="-8.00586" width="265.85" height="236.961" filterUnits="userSpaceOnUse" color-interpolation-filters="sRGB">
<feFlood flood-opacity="0" result="BackgroundImageFix"/>
<feColorMatrix in="SourceAlpha" type="matrix" values="0 0 0 0 0 0 0 0 0 0 0 0 0 0 0 0 0 0 127 0" result="hardAlpha"/>
<feOffset dy="4"/>
<feGaussianBlur stdDeviation="17.5"/>
<feComposite in2="hardAlpha" operator="out"/>
<feColorMatrix type="matrix" values="0 0 0 0 1 0 0 0 0 0 0 0 0 0 0 0 0 0 1 0"/>
<feBlend mode="normal" in2="BackgroundImageFix" result="effect1_dropShadow_1693_8"/>
<feBlend mode="normal" in="SourceGraphic" in2="effect1_dropShadow_1693_8" result="shape"/>
</filter>
<filter id="filter2_d_1693_8" x="-3.26074" y="-0.00585938" width="249.85" height="220.961" filterUnits="userSpaceOnUse" color-interpolation-filters="sRGB">
<feFlood flood-opacity="0" result="BackgroundImageFix"/>
<feColorMatrix in="SourceAlpha" type="matrix" values="0 0 0 0 0 0 0 0 0 0 0 0 0 0 0 0 0 0 127 0" result="hardAlpha"/>
<feOffset dy="4"/>
<feGaussianBlur stdDeviation="13.5"/>
<feComposite in2="hardAlpha" operator="out"/>
<feColorMatrix type="matrix" values="0 0 0 0 1 0 0 0 0 0 0 0 0 0 0 0 0 0 1 0"/>
<feBlend mode="normal" in2="BackgroundImageFix" result="effect1_dropShadow_1693_8"/>
<feBlend mode="normal" in="SourceGraphic" in2="effect1_dropShadow_1693_8" result="shape"/>
</filter>
<filter id="filter3_d_1693_8" x="-0.260742" y="2.99414" width="243.85" height="214.961" filterUnits="userSpaceOnUse" color-interpolation-filters="sRGB">
<feFlood flood-opacity="0" result="BackgroundImageFix"/>
<feColorMatrix in="SourceAlpha" type="matrix" values="0 0 0 0 0 0 0 0 0 0 0 0 0 0 0 0 0 0 127 0" result="hardAlpha"/>
<feOffset dy="4"/>
<feGaussianBlur stdDeviation="12"/>
<feComposite in2="hardAlpha" operator="out"/>
<feColorMatrix type="matrix" values="0 0 0 0 1 0 0 0 0 0 0 0 0 0 0 0 0 0 1 0"/>
<feBlend mode="normal" in2="BackgroundImageFix" result="effect1_dropShadow_1693_8"/>
<feBlend mode="normal" in="SourceGraphic" in2="effect1_dropShadow_1693_8" result="shape"/>
</filter>
<clipPath id="clip0_1693_8">
<rect width="255" height="219" fill="white"/>
</clipPath>
</defs>
</svg>
