<?xml version="1.0" encoding="utf-8"?>
<!-- Generator: Adobe Illustrator 23.0.3, SVG Export Plug-In . SVG Version: 6.00 Build 0)  -->
<svg version="1.1" id="neon-r-3" xmlns="http://www.w3.org/2000/svg" xmlns:xlink="http://www.w3.org/1999/xlink" x="0px" y="0px"
	 viewBox="0 0 257.8 219.05" style="enable-background:new 0 0 257.8 219.05;" xml:space="preserve">
<style type="text/css">
	#neon-r-3 .st0{fill:#FF8933;}
</style>
<path id="_x33_" class="st0" d="M248.66,212.05h-61.09c-25,0-56.44-2.72-77.78-23.95c-21.29-21.18-24.25-52.6-24.46-77.6
	l-0.19-22.11c0-0.4,0.15-0.78,0.44-1.07s0.67-0.44,1.06-0.44h112.84c1.92,0,3.49-1.56,3.5-3.48l0.15-24.54
	c0.01-0.94-0.35-1.82-1.01-2.49c-0.65-0.66-1.55-1.03-2.48-1.04c0,0-141.7-0.35-141.81-0.35c-0.93,0-1.81,0.36-2.47,1.02
	c-0.65,0.65-1.03,1.55-1.03,2.48v152.07c0,0.83-0.67,1.5-1.5,1.5H9c-0.83,0-1.5-0.67-1.5-1.5V9.5c0-0.4,0.16-0.78,0.44-1.06
	C8.22,8.16,8.6,8,9,8c0,0,0,0,0,0l239.8,0.6c0.4,0,0.78,0.16,1.06,0.44c0.28,0.28,0.44,0.67,0.43,1.07l-0.76,122.12
	c0,0.82-0.67,1.49-1.5,1.49H138.21c-1.07,0-2.07,0.48-2.74,1.32c-0.67,0.84-0.92,1.92-0.68,2.96c1.75,7.72,4.39,13.24,8.05,16.89
	c7.07,7.04,21.29,10.31,44.73,10.31h61.09c0.83,0,1.5,0.67,1.5,1.5v43.85C250.16,211.37,249.49,212.05,248.66,212.05z M88.17,89.87
	l0.17,20.6c0.2,24.43,3.07,55.09,23.58,75.5c20.56,20.46,51.23,23.08,75.66,23.08h59.59V168.2h-59.59
	c-24.29,0-39.18-3.55-46.85-11.19c-4.08-4.06-6.98-10.06-8.86-18.35c-0.44-1.94,0.02-3.94,1.26-5.5c1.24-1.55,3.09-2.45,5.08-2.45
	h108.34l0.74-119.12L10.5,11v198.04h40.85V58.47c0-1.71,0.7-3.39,1.91-4.6c1.23-1.22,2.86-1.9,4.59-1.9c0,0,0.01,0,141.81,0.35
	c1.72,0,3.39,0.71,4.6,1.93c1.22,1.23,1.89,2.87,1.88,4.62l-0.15,24.54c-0.02,3.56-2.94,6.46-6.5,6.46H88.17z"/>
</svg>
