<svg width="1886" height="7088" viewBox="0 0 1886 7088" fill="none" xmlns="http://www.w3.org/2000/svg">
<g clip-path="url(#clip0_1687_2)">
<rect width="1886" height="7088" fill="black"/>
<g filter="url(#filter0_d_1687_2)">
<path d="M1333.86 539.216H1370.86V502.216H1333.86V539.216ZM1024.01 539.216V502.216L987.013 502.216V539.216H1024.01ZM1024.01 1160.92V1197.92H1061.01V1160.92H1024.01ZM716.177 1160.92H679.177V1197.92H716.177V1160.92ZM716.177 539.216H753.177V502.216H716.177V539.216ZM233.297 539.216H196.297V576.216H233.297V539.216ZM233.297 140.84V103.84H196.297V140.84L233.297 140.84ZM1641.7 140.84H1678.7V103.84L1641.7 103.84V140.84ZM1641.7 1245.43V1282.43H1678.7V1245.43H1641.7ZM1333.86 1245.43H1296.86V1282.43H1333.86V1245.43ZM1333.86 502.216L1024.01 502.216V576.216L1333.86 576.216V502.216ZM987.013 539.216V1160.92H1061.01V539.216H987.013ZM1024.01 1123.92L716.177 1123.92V1197.92L1024.01 1197.92V1123.92ZM753.177 1160.92V539.216L679.177 539.216V1160.92H753.177ZM716.177 502.216L233.297 502.216V576.216L716.177 576.216V502.216ZM270.297 539.216L270.297 140.84L196.297 140.84L196.297 539.216L270.297 539.216ZM233.297 177.84L1641.7 177.84V103.84L233.297 103.84V177.84ZM1604.7 140.84L1604.7 1245.43H1678.7L1678.7 140.84H1604.7ZM1641.7 1208.43H1333.86V1282.43H1641.7V1208.43ZM1370.86 1245.43L1370.86 539.216H1296.86L1296.86 1245.43H1370.86ZM1641.7 3781.76L1630.28 3816.95L1678.7 3832.65V3781.76H1641.7ZM233.297 3325.03H196.297V3351.93L221.883 3360.23L233.297 3325.03ZM233.297 2898.49L222.195 2863.2L196.297 2871.34V2898.49H233.297ZM1090.41 2628.88L1101.51 2664.18L1211.27 2629.65L1101.96 2593.73L1090.41 2628.88ZM233.297 2347.2H196.297V2373.99L221.745 2382.35L233.297 2347.2ZM233.297 1920.66L221.883 1885.46L196.297 1893.76V1920.66H233.297ZM1641.7 1463.93H1678.7V1413.04L1630.28 1428.74L1641.7 1463.93ZM1641.7 1874.38L1652.83 1909.67L1678.7 1901.51V1874.38H1641.7ZM742.333 2158.07L731.202 2122.79L622.041 2157.22L730.703 2193.2L742.333 2158.07ZM1641.7 2455.85H1678.7V2429.13L1653.33 2420.73L1641.7 2455.85ZM1641.7 2822.03L1652.74 2857.35L1678.7 2849.23V2822.03H1641.7ZM734.285 3105.73L723.244 3070.41L612.637 3104.99L722.819 3140.9L734.285 3105.73ZM1641.7 3401.49H1678.7V3374.63L1653.16 3366.31L1641.7 3401.49ZM1653.11 3746.56L244.71 3289.84L221.883 3360.23L1630.28 3816.95L1653.11 3746.56ZM270.297 3325.03L270.297 2898.49H196.297L196.297 3325.03H270.297ZM244.399 2933.79L1101.51 2664.18L1079.31 2593.59L222.195 2863.2L244.399 2933.79ZM1101.96 2593.73L244.849 2312.05L221.745 2382.35L1078.86 2664.03L1101.96 2593.73ZM270.297 2347.2L270.297 1920.66H196.297L196.297 2347.2H270.297ZM244.71 1955.85L1653.11 1499.13L1630.28 1428.74L221.883 1885.46L244.71 1955.85ZM1604.7 1463.93V1874.38H1678.7V1463.93H1604.7ZM1630.57 1839.1L731.202 2122.79L753.463 2193.36L1652.83 1909.67L1630.57 1839.1ZM730.703 2193.2L1630.07 2490.98L1653.33 2420.73L753.963 2122.95L730.703 2193.2ZM1604.7 2455.85L1604.7 2822.03H1678.7V2455.85H1604.7ZM1630.66 2786.72L723.244 3070.41L745.326 3141.04L1652.74 2857.35L1630.66 2786.72ZM722.819 3140.9L1630.23 3436.67L1653.16 3366.31L745.751 3070.55L722.819 3140.9ZM1604.7 3401.49V3781.76H1678.7V3401.49H1604.7ZM541.133 5196.08V5233.08H578.133V5196.08H541.133ZM233.297 5196.08H196.297V5233.08H233.297V5196.08ZM233.297 4065.34V4028.34H196.297V4065.34H233.297ZM1641.7 4065.34H1678.7V4028.34H1641.7L1641.7 4065.34ZM1641.7 5169.93V5206.93H1678.7V5169.93H1641.7ZM1333.86 5169.93H1296.86V5206.93H1333.86V5169.93ZM1333.86 4459.69H1370.86V4422.69H1333.86V4459.69ZM1096.44 4459.69V4422.69H1059.44V4459.69H1096.44ZM1096.44 5085.42V5122.42H1133.44V5085.42H1096.44ZM798.669 5085.42H761.669V5122.42H798.669V5085.42ZM798.669 4459.69H835.669V4422.69H798.669V4459.69ZM541.133 4459.69V4422.69H504.133V4459.69H541.133ZM541.133 5159.08L233.297 5159.08V5233.08L541.133 5233.08V5159.08ZM270.297 5196.08L270.297 4065.34H196.297L196.297 5196.08H270.297ZM233.297 4102.34L1641.7 4102.34L1641.7 4028.34L233.297 4028.34V4102.34ZM1604.7 4065.34L1604.7 5169.93H1678.7L1678.7 4065.34H1604.7ZM1641.7 5132.93H1333.86V5206.93H1641.7V5132.93ZM1370.86 5169.93L1370.86 4459.69H1296.86L1296.86 5169.93H1370.86ZM1333.86 4422.69H1096.44V4496.69H1333.86L1333.86 4422.69ZM1059.44 4459.69L1059.44 5085.42H1133.44L1133.44 4459.69H1059.44ZM1096.44 5048.42H798.669V5122.42H1096.44V5048.42ZM835.669 5085.42L835.669 4459.69H761.669L761.669 5085.42H835.669ZM798.669 4422.69H541.133V4496.69H798.669V4422.69ZM504.133 4459.69L504.133 5196.08H578.133L578.133 4459.69H504.133ZM967.677 6640.45L1000.62 6623.61L961.299 6546.67L932.754 6628.23L967.677 6640.45ZM834.885 6829.58L812.58 6800.06L812.42 6800.18L812.261 6800.3L834.885 6829.58ZM333.897 6749.1L303.239 6769.81L303.239 6769.81L333.897 6749.1ZM233.297 5557.99L233.297 5520.99H196.297L196.297 5557.99H233.297ZM1641.7 5557.99H1678.7V5520.99H1641.7V5557.99ZM1541.1 6688.74L1510.99 6667.23L1510.89 6667.37L1510.79 6667.52L1541.1 6688.74ZM1092.42 6779.28L1112.03 6747.9L1111.92 6747.83L1111.81 6747.77L1092.42 6779.28ZM1353.98 5952.34H1390.98V5915.34H1353.98V5952.34ZM1082.36 5952.34V5915.34H1045.36V5952.34H1082.36ZM806.717 5952.34H843.717V5915.34H806.717V5952.34ZM521.013 5952.34V5915.34H484.013V5952.34H521.013ZM932.754 6628.23C906.679 6702.73 866.401 6759.39 812.58 6800.06L857.19 6859.1C924.089 6808.55 972.339 6739.13 1002.6 6652.67L932.754 6628.23ZM812.261 6800.3C760.572 6840.24 697.061 6860.98 619.601 6860.98V6934.98C711.149 6934.98 791.161 6910.12 857.508 6858.85L812.261 6800.3ZM619.601 6860.98C508.044 6860.98 424.496 6817.1 364.555 6728.38L303.239 6769.81C377.431 6879.62 484.352 6934.98 619.601 6934.98V6860.98ZM364.555 6728.38C303.357 6637.81 270.297 6502.8 270.297 6318.53H196.297C196.297 6509.83 230.304 6661.87 303.239 6769.81L364.555 6728.38ZM270.297 6318.53V5557.99H196.297V6318.53H270.297ZM233.297 5594.99L1641.7 5594.99V5520.99L233.297 5520.99L233.297 5594.99ZM1604.7 5557.99L1604.7 6278.29H1678.7L1678.7 5557.99H1604.7ZM1604.7 6278.29C1604.7 6454.32 1571.7 6582.23 1510.99 6667.23L1571.21 6710.24C1644.62 6607.46 1678.7 6461.73 1678.7 6278.29H1604.7ZM1510.79 6667.52C1451.84 6751.72 1373.85 6792.58 1273.5 6792.58V6866.58C1398.49 6866.58 1498.9 6813.54 1571.41 6709.96L1510.79 6667.52ZM1273.5 6792.58C1212.93 6792.58 1159.45 6777.54 1112.03 6747.9L1072.81 6810.65C1132.7 6848.09 1199.93 6866.58 1273.5 6866.58V6792.58ZM1111.81 6747.77C1065.87 6719.49 1028.72 6678.57 1000.62 6623.61L934.731 6657.29C968.339 6723.04 1014.35 6774.68 1073.03 6810.79L1111.81 6747.77ZM1353.98 5915.34H1082.36V5989.34H1353.98V5915.34ZM1045.36 5952.34V6225.98H1119.36V5952.34H1045.36ZM1045.36 6225.98C1045.36 6296.08 1057.07 6355.18 1085.97 6397.68C1116.61 6442.74 1163.1 6464.18 1219.18 6464.18V6390.18C1184.04 6390.18 1162.13 6378.08 1147.16 6356.07C1130.46 6331.5 1119.36 6290.01 1119.36 6225.98H1045.36ZM1219.18 6464.18C1274.81 6464.18 1320.82 6442.55 1351.02 6397.47C1379.46 6355.02 1390.98 6296.01 1390.98 6225.98H1316.98C1316.98 6290.08 1306.03 6331.67 1289.54 6356.28C1274.81 6378.27 1253.41 6390.18 1219.18 6390.18V6464.18ZM1390.98 6225.98L1390.98 5952.34H1316.98L1316.98 6225.98H1390.98ZM484.013 6286.34C484.013 6359.14 496.23 6420.28 526.168 6464.13C557.837 6510.52 605.841 6532.58 663.865 6532.58V6458.58C626.654 6458.58 603.232 6445.77 587.284 6422.41C569.605 6396.52 558.013 6353.03 558.013 6286.34H484.013ZM663.865 6532.58C721.889 6532.58 769.893 6510.52 801.562 6464.13C831.5 6420.28 843.717 6359.14 843.717 6286.34H769.717C769.717 6353.03 758.125 6396.52 740.446 6422.41C724.497 6445.77 701.075 6458.58 663.865 6458.58V6532.58ZM843.717 6286.34V5952.34H769.717V6286.34H843.717ZM806.717 5915.34H521.013V5989.34H806.717V5915.34ZM484.013 5952.34V6286.34H558.013V5952.34H484.013Z" fill="#FF4534"/>
</g>
</g>
<defs>
<filter id="filter0_d_1687_2" x="156.297" y="65.8398" width="1566.4" height="6915.15" filterUnits="userSpaceOnUse" color-interpolation-filters="sRGB">
<feFlood flood-opacity="0" result="BackgroundImageFix"/>
<feColorMatrix in="SourceAlpha" type="matrix" values="0 0 0 0 0 0 0 0 0 0 0 0 0 0 0 0 0 0 127 0" result="hardAlpha"/>
<feOffset dx="2" dy="4"/>
<feGaussianBlur stdDeviation="39.5"/>
<feComposite in2="hardAlpha" operator="out"/>
<feColorMatrix type="matrix" values="0 0 0 0 1 0 0 0 0 0.270588 0 0 0 0 0.203922 0 0 0 1 0"/>
<feBlend mode="normal" in2="BackgroundImageFix" result="effect1_dropShadow_1687_2"/>
<feBlend mode="normal" in="SourceGraphic" in2="effect1_dropShadow_1687_2" result="shape"/>
</filter>
<clipPath id="clip0_1687_2">
<rect width="1886" height="7088" fill="white"/>
</clipPath>
</defs>
</svg>
